<mxfile host="Electron" modified="2023-05-13T16:56:02.420Z" agent="Mozilla/5.0 (Windows NT 10.0; Win64; x64) AppleWebKit/537.36 (KHTML, like Gecko) draw.io/21.2.8 Chrome/112.0.5615.165 Electron/24.2.0 Safari/537.36" etag="U9DXDmH_Dr-gh9El1y0C" version="21.2.8" type="device">
  <diagram name="Page-1" id="oCYBQinQirQGewEDuI7B">
    <mxGraphModel dx="1365" dy="1435" grid="1" gridSize="10" guides="1" tooltips="1" connect="1" arrows="1" fold="1" page="1" pageScale="1" pageWidth="827" pageHeight="1169" math="0" shadow="0">
      <root>
        <mxCell id="0" />
        <mxCell id="1" parent="0" />
        <mxCell id="ujfTkzfmjz4NY19kAMxM-10" style="edgeStyle=orthogonalEdgeStyle;rounded=0;orthogonalLoop=1;jettySize=auto;html=1;entryX=0;entryY=0.5;entryDx=0;entryDy=0;endArrow=none;endFill=0;fillColor=#f5f5f5;strokeColor=#666666;fontStyle=1;snapToPoint=0;fixDash=0;backgroundOutline=1;enumerate=0;comic=0;shadow=1;fontFamily=Comic Sans MS;fontSize=13;" parent="1" source="ujfTkzfmjz4NY19kAMxM-1" target="ujfTkzfmjz4NY19kAMxM-9" edge="1">
          <mxGeometry relative="1" as="geometry" />
        </mxCell>
        <mxCell id="Jd8wHHOplZ8n1zHB2I2n-7" value="m" style="edgeLabel;html=1;align=center;verticalAlign=middle;resizable=0;points=[];" parent="ujfTkzfmjz4NY19kAMxM-10" vertex="1" connectable="0">
          <mxGeometry x="-0.8327" relative="1" as="geometry">
            <mxPoint as="offset" />
          </mxGeometry>
        </mxCell>
        <mxCell id="ujfTkzfmjz4NY19kAMxM-60" style="edgeStyle=orthogonalEdgeStyle;rounded=0;orthogonalLoop=1;jettySize=auto;html=1;entryX=1;entryY=0.5;entryDx=0;entryDy=0;endArrow=none;endFill=0;fillColor=#f5f5f5;strokeColor=#666666;fontStyle=1;snapToPoint=0;fixDash=0;backgroundOutline=1;enumerate=0;comic=0;shadow=1;fontFamily=Comic Sans MS;fontSize=13;" parent="1" source="ujfTkzfmjz4NY19kAMxM-1" edge="1">
          <mxGeometry relative="1" as="geometry">
            <mxPoint x="90" y="210" as="targetPoint" />
          </mxGeometry>
        </mxCell>
        <mxCell id="Jd8wHHOplZ8n1zHB2I2n-5" value="m" style="edgeLabel;html=1;align=center;verticalAlign=middle;resizable=0;points=[];" parent="ujfTkzfmjz4NY19kAMxM-60" vertex="1" connectable="0">
          <mxGeometry x="-0.768" y="2" relative="1" as="geometry">
            <mxPoint as="offset" />
          </mxGeometry>
        </mxCell>
        <mxCell id="ujfTkzfmjz4NY19kAMxM-87" style="edgeStyle=orthogonalEdgeStyle;rounded=1;orthogonalLoop=1;jettySize=auto;html=1;exitX=0;exitY=0.75;exitDx=0;exitDy=0;endArrow=none;endFill=0;fillColor=#f5f5f5;strokeColor=#666666;fontStyle=1;snapToPoint=0;fixDash=0;backgroundOutline=1;enumerate=0;comic=0;shadow=1;fontFamily=Comic Sans MS;fontSize=13;" parent="1" source="ujfTkzfmjz4NY19kAMxM-1" target="ujfTkzfmjz4NY19kAMxM-84" edge="1">
          <mxGeometry relative="1" as="geometry" />
        </mxCell>
        <mxCell id="Jd8wHHOplZ8n1zHB2I2n-1" value="m" style="edgeLabel;html=1;align=center;verticalAlign=middle;resizable=0;points=[];" parent="ujfTkzfmjz4NY19kAMxM-87" vertex="1" connectable="0">
          <mxGeometry x="-0.8443" y="1" relative="1" as="geometry">
            <mxPoint as="offset" />
          </mxGeometry>
        </mxCell>
        <mxCell id="ujfTkzfmjz4NY19kAMxM-1" value="users" style="rounded=0;whiteSpace=wrap;html=1;fillColor=#f5f5f5;strokeColor=#666666;fontColor=#333333;fontStyle=1;snapToPoint=0;fixDash=0;backgroundOutline=1;enumerate=0;comic=0;shadow=1;fontFamily=Comic Sans MS;fontSize=13;" parent="1" vertex="1">
          <mxGeometry x="350" y="180" width="120" height="60" as="geometry" />
        </mxCell>
        <mxCell id="LkBULsKiy7z9g8Z5s-N7-24" style="edgeStyle=orthogonalEdgeStyle;rounded=0;orthogonalLoop=1;jettySize=auto;html=1;exitX=0;exitY=0.75;exitDx=0;exitDy=0;entryX=0.5;entryY=0;entryDx=0;entryDy=0;fontFamily=Helvetica;fontSize=12;fontColor=default;" parent="1" source="ujfTkzfmjz4NY19kAMxM-8" target="LkBULsKiy7z9g8Z5s-N7-22" edge="1">
          <mxGeometry relative="1" as="geometry" />
        </mxCell>
        <mxCell id="LkBULsKiy7z9g8Z5s-N7-25" style="edgeStyle=orthogonalEdgeStyle;rounded=0;orthogonalLoop=1;jettySize=auto;html=1;exitX=0.25;exitY=1;exitDx=0;exitDy=0;fontFamily=Helvetica;fontSize=12;fontColor=default;" parent="1" source="ujfTkzfmjz4NY19kAMxM-8" target="LkBULsKiy7z9g8Z5s-N7-21" edge="1">
          <mxGeometry relative="1" as="geometry">
            <Array as="points">
              <mxPoint x="895" y="700" />
            </Array>
          </mxGeometry>
        </mxCell>
        <mxCell id="LkBULsKiy7z9g8Z5s-N7-26" style="edgeStyle=orthogonalEdgeStyle;rounded=0;orthogonalLoop=1;jettySize=auto;html=1;exitX=0.75;exitY=1;exitDx=0;exitDy=0;fontFamily=Helvetica;fontSize=12;fontColor=default;" parent="1" source="ujfTkzfmjz4NY19kAMxM-8" target="ujfTkzfmjz4NY19kAMxM-40" edge="1">
          <mxGeometry relative="1" as="geometry">
            <Array as="points">
              <mxPoint x="1015" y="700" />
            </Array>
          </mxGeometry>
        </mxCell>
        <mxCell id="LkBULsKiy7z9g8Z5s-N7-27" style="edgeStyle=orthogonalEdgeStyle;rounded=0;orthogonalLoop=1;jettySize=auto;html=1;exitX=1;exitY=0.5;exitDx=0;exitDy=0;entryX=0.5;entryY=0;entryDx=0;entryDy=0;fontFamily=Helvetica;fontSize=12;fontColor=default;" parent="1" source="ujfTkzfmjz4NY19kAMxM-8" target="LkBULsKiy7z9g8Z5s-N7-20" edge="1">
          <mxGeometry relative="1" as="geometry" />
        </mxCell>
        <mxCell id="LkBULsKiy7z9g8Z5s-N7-33" style="edgeStyle=orthogonalEdgeStyle;rounded=0;orthogonalLoop=1;jettySize=auto;html=1;exitX=0;exitY=0.25;exitDx=0;exitDy=0;entryX=0.5;entryY=0;entryDx=0;entryDy=0;fontFamily=Helvetica;fontSize=12;fontColor=default;" parent="1" source="ujfTkzfmjz4NY19kAMxM-8" target="LkBULsKiy7z9g8Z5s-N7-31" edge="1">
          <mxGeometry relative="1" as="geometry">
            <Array as="points">
              <mxPoint x="870" y="670" />
              <mxPoint x="665" y="670" />
            </Array>
          </mxGeometry>
        </mxCell>
        <mxCell id="ujfTkzfmjz4NY19kAMxM-8" value="page" style="rounded=0;whiteSpace=wrap;html=1;fillColor=#f5f5f5;strokeColor=#666666;fontColor=#333333;fontStyle=1;snapToPoint=0;fixDash=0;backgroundOutline=1;enumerate=0;comic=0;shadow=1;fontFamily=Comic Sans MS;fontSize=13;" parent="1" vertex="1">
          <mxGeometry x="870" y="640" width="120" height="60" as="geometry" />
        </mxCell>
        <mxCell id="ujfTkzfmjz4NY19kAMxM-75" style="edgeStyle=orthogonalEdgeStyle;rounded=0;orthogonalLoop=1;jettySize=auto;html=1;entryX=0.5;entryY=0;entryDx=0;entryDy=0;fillColor=#f5f5f5;strokeColor=#666666;fontStyle=1;snapToPoint=0;fixDash=0;backgroundOutline=1;enumerate=0;comic=0;shadow=1;fontFamily=Comic Sans MS;fontSize=13;" parent="1" source="ujfTkzfmjz4NY19kAMxM-9" target="ujfTkzfmjz4NY19kAMxM-8" edge="1">
          <mxGeometry relative="1" as="geometry" />
        </mxCell>
        <mxCell id="Jd8wHHOplZ8n1zHB2I2n-8" value="n" style="edgeLabel;html=1;align=center;verticalAlign=middle;resizable=0;points=[];" parent="ujfTkzfmjz4NY19kAMxM-75" vertex="1" connectable="0">
          <mxGeometry x="0.9009" relative="1" as="geometry">
            <mxPoint as="offset" />
          </mxGeometry>
        </mxCell>
        <mxCell id="ujfTkzfmjz4NY19kAMxM-9" value="follows&amp;nbsp;" style="rhombus;whiteSpace=wrap;html=1;fillColor=#f5f5f5;strokeColor=#666666;fontColor=#333333;fontStyle=1;snapToPoint=0;fixDash=0;backgroundOutline=1;enumerate=0;comic=0;shadow=1;fontFamily=Comic Sans MS;fontSize=13;" parent="1" vertex="1">
          <mxGeometry x="650" y="170" width="80" height="80" as="geometry" />
        </mxCell>
        <mxCell id="ujfTkzfmjz4NY19kAMxM-13" value="Fname" style="ellipse;whiteSpace=wrap;html=1;fillColor=#f5f5f5;strokeColor=#666666;fontColor=#333333;fontStyle=1;snapToPoint=0;fixDash=0;backgroundOutline=1;enumerate=0;comic=0;shadow=1;fontFamily=Comic Sans MS;fontSize=13;" parent="1" vertex="1">
          <mxGeometry x="20" y="-40" width="110" height="70" as="geometry" />
        </mxCell>
        <mxCell id="ujfTkzfmjz4NY19kAMxM-14" value="Lname" style="ellipse;whiteSpace=wrap;html=1;fillColor=#f5f5f5;strokeColor=#666666;fontColor=#333333;fontStyle=1;snapToPoint=0;fixDash=0;backgroundOutline=1;enumerate=0;comic=0;shadow=1;fontFamily=Comic Sans MS;fontSize=13;" parent="1" vertex="1">
          <mxGeometry x="142" y="-40" width="110" height="70" as="geometry" />
        </mxCell>
        <mxCell id="ujfTkzfmjz4NY19kAMxM-15" value="DOB" style="ellipse;whiteSpace=wrap;html=1;fillColor=#f5f5f5;strokeColor=#666666;fontColor=#333333;fontStyle=1;snapToPoint=0;fixDash=0;backgroundOutline=1;enumerate=0;comic=0;shadow=1;fontFamily=Comic Sans MS;fontSize=13;" parent="1" vertex="1">
          <mxGeometry x="260" y="-40" width="100" height="70" as="geometry" />
        </mxCell>
        <mxCell id="ujfTkzfmjz4NY19kAMxM-16" value="Password" style="ellipse;whiteSpace=wrap;html=1;fillColor=#f5f5f5;strokeColor=#666666;fontColor=#333333;fontStyle=1;snapToPoint=0;fixDash=0;backgroundOutline=1;enumerate=0;comic=0;shadow=1;fontFamily=Comic Sans MS;fontSize=13;" parent="1" vertex="1">
          <mxGeometry x="371" y="-40" width="100" height="70" as="geometry" />
        </mxCell>
        <mxCell id="ujfTkzfmjz4NY19kAMxM-18" value="Phone" style="ellipse;whiteSpace=wrap;html=1;fillColor=#f5f5f5;strokeColor=#666666;fontColor=#333333;fontStyle=1;snapToPoint=0;fixDash=0;backgroundOutline=1;enumerate=0;comic=0;shadow=1;fontFamily=Comic Sans MS;fontSize=13;" parent="1" vertex="1">
          <mxGeometry x="486" y="-40" width="95" height="70" as="geometry" />
        </mxCell>
        <mxCell id="ujfTkzfmjz4NY19kAMxM-21" value="" style="endArrow=none;html=1;rounded=0;entryX=0.5;entryY=1;entryDx=0;entryDy=0;exitX=0;exitY=0.25;exitDx=0;exitDy=0;fillColor=#f5f5f5;strokeColor=#666666;fontStyle=1;snapToPoint=0;fixDash=0;backgroundOutline=1;enumerate=0;comic=0;shadow=1;fontFamily=Comic Sans MS;fontSize=13;" parent="1" source="ujfTkzfmjz4NY19kAMxM-1" target="ujfTkzfmjz4NY19kAMxM-13" edge="1">
          <mxGeometry width="50" height="50" relative="1" as="geometry">
            <mxPoint x="560" y="370" as="sourcePoint" />
            <mxPoint x="610" y="320" as="targetPoint" />
          </mxGeometry>
        </mxCell>
        <mxCell id="ujfTkzfmjz4NY19kAMxM-22" value="" style="endArrow=none;html=1;rounded=0;entryX=0.5;entryY=1;entryDx=0;entryDy=0;exitX=0;exitY=0.25;exitDx=0;exitDy=0;fillColor=#f5f5f5;strokeColor=#666666;fontStyle=1;snapToPoint=0;fixDash=0;backgroundOutline=1;enumerate=0;comic=0;shadow=1;fontFamily=Comic Sans MS;fontSize=13;" parent="1" source="ujfTkzfmjz4NY19kAMxM-1" target="ujfTkzfmjz4NY19kAMxM-14" edge="1">
          <mxGeometry width="50" height="50" relative="1" as="geometry">
            <mxPoint x="360" y="205" as="sourcePoint" />
            <mxPoint x="205" y="140" as="targetPoint" />
          </mxGeometry>
        </mxCell>
        <mxCell id="ujfTkzfmjz4NY19kAMxM-23" value="" style="endArrow=none;html=1;rounded=0;entryX=0.5;entryY=1;entryDx=0;entryDy=0;exitX=0.5;exitY=0;exitDx=0;exitDy=0;fillColor=#f5f5f5;strokeColor=#666666;fontStyle=1;snapToPoint=0;fixDash=0;backgroundOutline=1;enumerate=0;comic=0;shadow=1;fontFamily=Comic Sans MS;fontSize=13;" parent="1" source="ujfTkzfmjz4NY19kAMxM-1" target="ujfTkzfmjz4NY19kAMxM-15" edge="1">
          <mxGeometry width="50" height="50" relative="1" as="geometry">
            <mxPoint x="370" y="215" as="sourcePoint" />
            <mxPoint x="215" y="150" as="targetPoint" />
          </mxGeometry>
        </mxCell>
        <mxCell id="ujfTkzfmjz4NY19kAMxM-24" value="" style="endArrow=none;html=1;rounded=0;entryX=0.5;entryY=1;entryDx=0;entryDy=0;exitX=0.5;exitY=0;exitDx=0;exitDy=0;fillColor=#f5f5f5;strokeColor=#666666;fontStyle=1;snapToPoint=0;fixDash=0;backgroundOutline=1;enumerate=0;comic=0;shadow=1;fontFamily=Comic Sans MS;fontSize=13;" parent="1" source="ujfTkzfmjz4NY19kAMxM-1" target="ujfTkzfmjz4NY19kAMxM-16" edge="1">
          <mxGeometry width="50" height="50" relative="1" as="geometry">
            <mxPoint x="380" y="225" as="sourcePoint" />
            <mxPoint x="225" y="160" as="targetPoint" />
          </mxGeometry>
        </mxCell>
        <mxCell id="ujfTkzfmjz4NY19kAMxM-25" value="" style="endArrow=none;html=1;rounded=0;entryX=0.5;entryY=1;entryDx=0;entryDy=0;exitX=0.5;exitY=0;exitDx=0;exitDy=0;fillColor=#f5f5f5;strokeColor=#666666;fontStyle=1;snapToPoint=0;fixDash=0;backgroundOutline=1;enumerate=0;comic=0;shadow=1;fontFamily=Comic Sans MS;fontSize=13;" parent="1" source="ujfTkzfmjz4NY19kAMxM-1" target="ujfTkzfmjz4NY19kAMxM-18" edge="1">
          <mxGeometry width="50" height="50" relative="1" as="geometry">
            <mxPoint x="560" y="370" as="sourcePoint" />
            <mxPoint x="610" y="320" as="targetPoint" />
          </mxGeometry>
        </mxCell>
        <mxCell id="ujfTkzfmjz4NY19kAMxM-27" value="" style="endArrow=none;html=1;rounded=0;entryX=0.384;entryY=1;entryDx=0;entryDy=0;exitX=1;exitY=0.25;exitDx=0;exitDy=0;fillColor=#f5f5f5;strokeColor=#666666;fontStyle=1;snapToPoint=0;fixDash=0;backgroundOutline=1;enumerate=0;comic=0;shadow=1;fontFamily=Comic Sans MS;fontSize=13;entryPerimeter=0;" parent="1" source="ujfTkzfmjz4NY19kAMxM-1" target="LkBULsKiy7z9g8Z5s-N7-10" edge="1">
          <mxGeometry width="50" height="50" relative="1" as="geometry">
            <mxPoint x="560" y="370" as="sourcePoint" />
            <mxPoint x="615.2512626584753" y="19.74873734152493" as="targetPoint" />
          </mxGeometry>
        </mxCell>
        <mxCell id="ujfTkzfmjz4NY19kAMxM-29" value="Faculty" style="ellipse;whiteSpace=wrap;html=1;fillColor=#f5f5f5;strokeColor=#666666;fontColor=#333333;fontStyle=1;snapToPoint=0;fixDash=0;backgroundOutline=1;enumerate=0;comic=0;shadow=1;fontFamily=Comic Sans MS;fontSize=13;" parent="1" vertex="1">
          <mxGeometry x="480" y="-200" width="110" height="60" as="geometry" />
        </mxCell>
        <mxCell id="ujfTkzfmjz4NY19kAMxM-30" value="Address" style="ellipse;whiteSpace=wrap;html=1;fillColor=#f5f5f5;strokeColor=#666666;fontColor=#333333;fontStyle=1;snapToPoint=0;fixDash=0;backgroundOutline=1;enumerate=0;comic=0;shadow=1;fontFamily=Comic Sans MS;fontSize=13;" parent="1" vertex="1">
          <mxGeometry x="747" y="-170" width="103" height="60" as="geometry" />
        </mxCell>
        <mxCell id="ujfTkzfmjz4NY19kAMxM-32" value="Relationship" style="ellipse;whiteSpace=wrap;html=1;fillColor=#f5f5f5;strokeColor=#666666;fontColor=#333333;fontStyle=1;snapToPoint=0;fixDash=0;backgroundOutline=1;enumerate=0;comic=0;shadow=1;fontFamily=Comic Sans MS;fontSize=13;" parent="1" vertex="1">
          <mxGeometry x="620" y="-210" width="110" height="60" as="geometry" />
        </mxCell>
        <mxCell id="ujfTkzfmjz4NY19kAMxM-33" value="" style="endArrow=none;html=1;rounded=0;entryX=0.5;entryY=1;entryDx=0;entryDy=0;exitX=0.5;exitY=0;exitDx=0;exitDy=0;fillColor=#f5f5f5;strokeColor=#666666;fontStyle=1;snapToPoint=0;fixDash=0;backgroundOutline=1;enumerate=0;comic=0;shadow=1;fontFamily=Comic Sans MS;fontSize=13;" parent="1" source="LkBULsKiy7z9g8Z5s-N7-10" target="ujfTkzfmjz4NY19kAMxM-29" edge="1">
          <mxGeometry width="50" height="50" relative="1" as="geometry">
            <mxPoint x="615.2512626584753" y="-29.748737341524702" as="sourcePoint" />
            <mxPoint x="610" y="320" as="targetPoint" />
          </mxGeometry>
        </mxCell>
        <mxCell id="ujfTkzfmjz4NY19kAMxM-34" value="" style="endArrow=none;html=1;rounded=0;exitX=0.5;exitY=1;exitDx=0;exitDy=0;fillColor=#f5f5f5;strokeColor=#666666;fontStyle=1;snapToPoint=0;fixDash=0;backgroundOutline=1;enumerate=0;comic=0;shadow=1;fontFamily=Comic Sans MS;fontSize=13;entryX=0.5;entryY=0;entryDx=0;entryDy=0;" parent="1" source="ujfTkzfmjz4NY19kAMxM-32" target="LkBULsKiy7z9g8Z5s-N7-10" edge="1">
          <mxGeometry width="50" height="50" relative="1" as="geometry">
            <mxPoint x="570" y="380" as="sourcePoint" />
            <mxPoint x="640" y="-40" as="targetPoint" />
          </mxGeometry>
        </mxCell>
        <mxCell id="ujfTkzfmjz4NY19kAMxM-35" value="" style="endArrow=none;html=1;rounded=0;entryX=0.5;entryY=1;entryDx=0;entryDy=0;exitX=0.5;exitY=0;exitDx=0;exitDy=0;fillColor=#f5f5f5;strokeColor=#666666;fontStyle=1;snapToPoint=0;fixDash=0;backgroundOutline=1;enumerate=0;comic=0;shadow=1;fontFamily=Comic Sans MS;fontSize=13;" parent="1" source="LkBULsKiy7z9g8Z5s-N7-10" target="ujfTkzfmjz4NY19kAMxM-30" edge="1">
          <mxGeometry width="50" height="50" relative="1" as="geometry">
            <mxPoint x="664.7487373415247" y="-29.748737341524702" as="sourcePoint" />
            <mxPoint x="630" y="340" as="targetPoint" />
          </mxGeometry>
        </mxCell>
        <mxCell id="ujfTkzfmjz4NY19kAMxM-40" value="Company_Email" style="ellipse;whiteSpace=wrap;html=1;fillColor=#f5f5f5;strokeColor=#666666;fontColor=#333333;fontStyle=1;snapToPoint=0;fixDash=0;backgroundOutline=1;enumerate=0;comic=0;shadow=1;fontFamily=Comic Sans MS;fontSize=13;" parent="1" vertex="1">
          <mxGeometry x="970" y="761" width="90" height="60" as="geometry" />
        </mxCell>
        <mxCell id="ujfTkzfmjz4NY19kAMxM-71" style="edgeStyle=orthogonalEdgeStyle;rounded=0;orthogonalLoop=1;jettySize=auto;html=1;entryX=0;entryY=0.5;entryDx=0;entryDy=0;fillColor=#f5f5f5;strokeColor=#666666;fontStyle=1;snapToPoint=0;fixDash=0;backgroundOutline=1;enumerate=0;comic=0;shadow=1;fontFamily=Comic Sans MS;fontSize=13;" parent="1" target="ujfTkzfmjz4NY19kAMxM-48" edge="1">
          <mxGeometry relative="1" as="geometry">
            <Array as="points">
              <mxPoint x="-170" y="210" />
              <mxPoint x="-170" y="680" />
            </Array>
            <mxPoint x="10" y="210" as="sourcePoint" />
          </mxGeometry>
        </mxCell>
        <mxCell id="Jd8wHHOplZ8n1zHB2I2n-6" value="n" style="edgeLabel;html=1;align=center;verticalAlign=middle;resizable=0;points=[];" parent="ujfTkzfmjz4NY19kAMxM-71" vertex="1" connectable="0">
          <mxGeometry x="0.9404" y="-2" relative="1" as="geometry">
            <mxPoint as="offset" />
          </mxGeometry>
        </mxCell>
        <mxCell id="LkBULsKiy7z9g8Z5s-N7-13" style="edgeStyle=orthogonalEdgeStyle;rounded=0;orthogonalLoop=1;jettySize=auto;html=1;exitX=0;exitY=0.75;exitDx=0;exitDy=0;fontFamily=Helvetica;fontSize=12;fontColor=default;" parent="1" source="ujfTkzfmjz4NY19kAMxM-48" target="LkBULsKiy7z9g8Z5s-N7-6" edge="1">
          <mxGeometry relative="1" as="geometry" />
        </mxCell>
        <mxCell id="LkBULsKiy7z9g8Z5s-N7-17" style="edgeStyle=orthogonalEdgeStyle;rounded=0;orthogonalLoop=1;jettySize=auto;html=1;exitX=1;exitY=0.5;exitDx=0;exitDy=0;entryX=0.5;entryY=0;entryDx=0;entryDy=0;fontFamily=Helvetica;fontSize=12;fontColor=default;" parent="1" source="ujfTkzfmjz4NY19kAMxM-48" target="ujfTkzfmjz4NY19kAMxM-52" edge="1">
          <mxGeometry relative="1" as="geometry" />
        </mxCell>
        <mxCell id="LkBULsKiy7z9g8Z5s-N7-18" style="edgeStyle=orthogonalEdgeStyle;rounded=0;orthogonalLoop=1;jettySize=auto;html=1;exitX=1;exitY=0.75;exitDx=0;exitDy=0;entryX=0.5;entryY=0;entryDx=0;entryDy=0;fontFamily=Helvetica;fontSize=12;fontColor=default;" parent="1" source="ujfTkzfmjz4NY19kAMxM-48" target="ujfTkzfmjz4NY19kAMxM-53" edge="1">
          <mxGeometry relative="1" as="geometry" />
        </mxCell>
        <mxCell id="LkBULsKiy7z9g8Z5s-N7-19" style="edgeStyle=orthogonalEdgeStyle;rounded=0;orthogonalLoop=1;jettySize=auto;html=1;exitX=0.5;exitY=1;exitDx=0;exitDy=0;fontFamily=Helvetica;fontSize=12;fontColor=default;" parent="1" source="ujfTkzfmjz4NY19kAMxM-48" target="ujfTkzfmjz4NY19kAMxM-49" edge="1">
          <mxGeometry relative="1" as="geometry" />
        </mxCell>
        <mxCell id="LkBULsKiy7z9g8Z5s-N7-43" style="edgeStyle=orthogonalEdgeStyle;rounded=0;orthogonalLoop=1;jettySize=auto;html=1;exitX=0.25;exitY=1;exitDx=0;exitDy=0;entryX=0.5;entryY=0;entryDx=0;entryDy=0;fontFamily=Helvetica;fontSize=12;fontColor=default;" parent="1" source="ujfTkzfmjz4NY19kAMxM-48" target="LkBULsKiy7z9g8Z5s-N7-42" edge="1">
          <mxGeometry relative="1" as="geometry" />
        </mxCell>
        <mxCell id="ujfTkzfmjz4NY19kAMxM-48" value="Posts" style="rounded=0;whiteSpace=wrap;html=1;fillColor=#f5f5f5;strokeColor=#666666;fontColor=#333333;fontStyle=1;snapToPoint=0;fixDash=0;backgroundOutline=1;enumerate=0;comic=0;shadow=1;fontFamily=Comic Sans MS;fontSize=13;" parent="1" vertex="1">
          <mxGeometry y="650" width="120" height="60" as="geometry" />
        </mxCell>
        <mxCell id="ujfTkzfmjz4NY19kAMxM-49" value="Likes" style="ellipse;whiteSpace=wrap;html=1;fillColor=#f5f5f5;strokeColor=#666666;fontColor=#333333;fontStyle=1;snapToPoint=0;fixDash=0;backgroundOutline=1;enumerate=0;comic=0;shadow=1;fontFamily=Comic Sans MS;fontSize=13;" parent="1" vertex="1">
          <mxGeometry x="70" y="750" width="110" height="70" as="geometry" />
        </mxCell>
        <mxCell id="ujfTkzfmjz4NY19kAMxM-52" value="Date_Of_Creation" style="ellipse;whiteSpace=wrap;html=1;fillColor=#f5f5f5;strokeColor=#666666;fontColor=#333333;fontStyle=1;snapToPoint=0;fixDash=0;backgroundOutline=1;enumerate=0;comic=0;shadow=1;fontFamily=Comic Sans MS;fontSize=13;" parent="1" vertex="1">
          <mxGeometry x="356" y="750" width="120" height="70" as="geometry" />
        </mxCell>
        <mxCell id="ujfTkzfmjz4NY19kAMxM-69" style="edgeStyle=orthogonalEdgeStyle;rounded=0;orthogonalLoop=1;jettySize=auto;html=1;entryX=0.5;entryY=1;entryDx=0;entryDy=0;endArrow=none;endFill=0;fillColor=#f5f5f5;strokeColor=#666666;fontStyle=1;snapToPoint=0;fixDash=0;backgroundOutline=1;enumerate=0;comic=0;shadow=1;fontFamily=Comic Sans MS;fontSize=13;" parent="1" source="ujfTkzfmjz4NY19kAMxM-64" target="ujfTkzfmjz4NY19kAMxM-68" edge="1">
          <mxGeometry relative="1" as="geometry">
            <Array as="points">
              <mxPoint x="570" y="500" />
              <mxPoint x="570" y="500" />
            </Array>
          </mxGeometry>
        </mxCell>
        <mxCell id="LkBULsKiy7z9g8Z5s-N7-2" style="edgeStyle=orthogonalEdgeStyle;rounded=1;orthogonalLoop=1;jettySize=auto;html=1;exitX=0;exitY=0.5;exitDx=0;exitDy=0;entryX=0.75;entryY=1;entryDx=0;entryDy=0;" parent="1" source="ujfTkzfmjz4NY19kAMxM-64" target="ujfTkzfmjz4NY19kAMxM-1" edge="1">
          <mxGeometry relative="1" as="geometry" />
        </mxCell>
        <mxCell id="Jd8wHHOplZ8n1zHB2I2n-4" value="n" style="edgeLabel;html=1;align=center;verticalAlign=middle;resizable=0;points=[];" parent="LkBULsKiy7z9g8Z5s-N7-2" vertex="1" connectable="0">
          <mxGeometry x="0.8434" y="-1" relative="1" as="geometry">
            <mxPoint as="offset" />
          </mxGeometry>
        </mxCell>
        <mxCell id="ujfTkzfmjz4NY19kAMxM-68" value="Time" style="ellipse;whiteSpace=wrap;html=1;fillColor=#f5f5f5;strokeColor=#666666;fontColor=#333333;fontStyle=1;snapToPoint=0;fixDash=0;backgroundOutline=1;enumerate=0;comic=0;shadow=1;fontFamily=Comic Sans MS;fontSize=13;" parent="1" vertex="1">
          <mxGeometry x="510" y="480" width="50" height="30" as="geometry" />
        </mxCell>
        <mxCell id="ujfTkzfmjz4NY19kAMxM-76" style="edgeStyle=orthogonalEdgeStyle;rounded=0;orthogonalLoop=1;jettySize=auto;html=1;exitX=0.5;exitY=1;exitDx=0;exitDy=0;fillColor=#f5f5f5;strokeColor=#666666;fontStyle=1;snapToPoint=0;fixDash=0;backgroundOutline=1;enumerate=0;comic=0;shadow=1;fontFamily=Comic Sans MS;fontSize=13;" parent="1" source="ujfTkzfmjz4NY19kAMxM-40" target="ujfTkzfmjz4NY19kAMxM-40" edge="1">
          <mxGeometry relative="1" as="geometry" />
        </mxCell>
        <mxCell id="ujfTkzfmjz4NY19kAMxM-80" value="&lt;u style=&quot;font-size: 13px;&quot;&gt;user_id&lt;/u&gt;" style="ellipse;whiteSpace=wrap;html=1;fillColor=#f5f5f5;strokeColor=#666666;fontColor=#333333;fontStyle=1;snapToPoint=0;fixDash=0;backgroundOutline=1;enumerate=0;comic=0;shadow=1;fontFamily=Comic Sans MS;fontSize=13;" parent="1" vertex="1">
          <mxGeometry x="723" y="-40" width="110" height="70" as="geometry" />
        </mxCell>
        <mxCell id="ujfTkzfmjz4NY19kAMxM-81" value="" style="endArrow=none;html=1;rounded=0;entryX=0;entryY=1;entryDx=0;entryDy=0;fillColor=#f5f5f5;strokeColor=#666666;fontStyle=1;snapToPoint=0;fixDash=0;backgroundOutline=1;enumerate=0;comic=0;shadow=1;fontFamily=Comic Sans MS;fontSize=13;exitX=1;exitY=0.25;exitDx=0;exitDy=0;" parent="1" source="ujfTkzfmjz4NY19kAMxM-1" target="ujfTkzfmjz4NY19kAMxM-80" edge="1">
          <mxGeometry width="50" height="50" relative="1" as="geometry">
            <mxPoint x="510" y="190" as="sourcePoint" />
            <mxPoint x="310" y="210" as="targetPoint" />
          </mxGeometry>
        </mxCell>
        <mxCell id="LkBULsKiy7z9g8Z5s-N7-38" style="edgeStyle=orthogonalEdgeStyle;rounded=0;orthogonalLoop=1;jettySize=auto;html=1;exitX=0.5;exitY=0;exitDx=0;exitDy=0;entryX=0.5;entryY=1;entryDx=0;entryDy=0;fontFamily=Helvetica;fontSize=12;fontColor=default;" parent="1" source="ujfTkzfmjz4NY19kAMxM-82" edge="1">
          <mxGeometry relative="1" as="geometry">
            <mxPoint x="50" y="250" as="targetPoint" />
          </mxGeometry>
        </mxCell>
        <mxCell id="ujfTkzfmjz4NY19kAMxM-82" value="Time" style="ellipse;whiteSpace=wrap;html=1;fillColor=#f5f5f5;strokeColor=#666666;fontColor=#333333;fontStyle=1;snapToPoint=0;fixDash=0;backgroundOutline=1;enumerate=0;comic=0;shadow=1;fontFamily=Comic Sans MS;fontSize=13;" parent="1" vertex="1">
          <mxGeometry x="-60" y="310" width="90" height="50" as="geometry" />
        </mxCell>
        <mxCell id="ujfTkzfmjz4NY19kAMxM-86" style="edgeStyle=orthogonalEdgeStyle;rounded=1;orthogonalLoop=1;jettySize=auto;html=1;entryX=0.25;entryY=1;entryDx=0;entryDy=0;fillColor=#f5f5f5;strokeColor=#666666;fontStyle=1;snapToPoint=0;fixDash=0;backgroundOutline=1;enumerate=0;comic=0;shadow=1;fontFamily=Comic Sans MS;fontSize=13;" parent="1" source="ujfTkzfmjz4NY19kAMxM-84" target="ujfTkzfmjz4NY19kAMxM-1" edge="1">
          <mxGeometry relative="1" as="geometry" />
        </mxCell>
        <mxCell id="Jd8wHHOplZ8n1zHB2I2n-2" value="n" style="edgeLabel;html=1;align=center;verticalAlign=middle;resizable=0;points=[];" parent="ujfTkzfmjz4NY19kAMxM-86" vertex="1" connectable="0">
          <mxGeometry x="0.7984" relative="1" as="geometry">
            <mxPoint as="offset" />
          </mxGeometry>
        </mxCell>
        <mxCell id="ujfTkzfmjz4NY19kAMxM-89" style="edgeStyle=orthogonalEdgeStyle;rounded=0;orthogonalLoop=1;jettySize=auto;html=1;entryX=1;entryY=0.5;entryDx=0;entryDy=0;endArrow=none;endFill=0;fillColor=#f5f5f5;strokeColor=#666666;fontStyle=1;snapToPoint=0;fixDash=0;backgroundOutline=1;enumerate=0;comic=0;shadow=1;fontFamily=Comic Sans MS;fontSize=13;" parent="1" source="ujfTkzfmjz4NY19kAMxM-84" target="ujfTkzfmjz4NY19kAMxM-88" edge="1">
          <mxGeometry relative="1" as="geometry" />
        </mxCell>
        <mxCell id="ujfTkzfmjz4NY19kAMxM-91" style="edgeStyle=orthogonalEdgeStyle;rounded=0;orthogonalLoop=1;jettySize=auto;html=1;entryX=0.5;entryY=0;entryDx=0;entryDy=0;endArrow=none;endFill=0;fillColor=#f5f5f5;strokeColor=#666666;fontStyle=1;snapToPoint=0;fixDash=0;backgroundOutline=1;enumerate=0;comic=0;shadow=1;fontFamily=Comic Sans MS;fontSize=13;" parent="1" source="ujfTkzfmjz4NY19kAMxM-84" target="ujfTkzfmjz4NY19kAMxM-90" edge="1">
          <mxGeometry relative="1" as="geometry" />
        </mxCell>
        <mxCell id="ujfTkzfmjz4NY19kAMxM-84" value="Chat" style="rhombus;whiteSpace=wrap;html=1;fillColor=#f5f5f5;strokeColor=#666666;fontColor=#333333;fontStyle=1;snapToPoint=0;fixDash=0;backgroundOutline=1;enumerate=0;comic=0;shadow=1;fontFamily=Comic Sans MS;fontSize=13;" parent="1" vertex="1">
          <mxGeometry x="260" y="370" width="80" height="80" as="geometry" />
        </mxCell>
        <mxCell id="ujfTkzfmjz4NY19kAMxM-88" value="Time" style="ellipse;whiteSpace=wrap;html=1;fillColor=#f5f5f5;strokeColor=#666666;fontColor=#333333;fontStyle=1;snapToPoint=0;fixDash=0;backgroundOutline=1;enumerate=0;comic=0;shadow=1;fontFamily=Comic Sans MS;fontSize=13;" parent="1" vertex="1">
          <mxGeometry x="180" y="390" width="60" height="40" as="geometry" />
        </mxCell>
        <mxCell id="ujfTkzfmjz4NY19kAMxM-90" value="Text" style="ellipse;whiteSpace=wrap;html=1;fillColor=#f5f5f5;strokeColor=#666666;fontColor=#333333;fontStyle=1;snapToPoint=0;fixDash=0;backgroundOutline=1;enumerate=0;comic=0;shadow=1;fontFamily=Comic Sans MS;fontSize=13;" parent="1" vertex="1">
          <mxGeometry x="270" y="460" width="60" height="50" as="geometry" />
        </mxCell>
        <mxCell id="LkBULsKiy7z9g8Z5s-N7-6" value="Title" style="ellipse;whiteSpace=wrap;html=1;fillColor=#f5f5f5;strokeColor=#666666;fontColor=#333333;fontStyle=1;snapToPoint=0;fixDash=0;backgroundOutline=1;enumerate=0;comic=0;shadow=1;fontFamily=Comic Sans MS;fontSize=13;" parent="1" vertex="1">
          <mxGeometry x="-196" y="750" width="90" height="70" as="geometry" />
        </mxCell>
        <mxCell id="LkBULsKiy7z9g8Z5s-N7-10" value="&lt;span style=&quot;font-size: 13px;&quot;&gt;About&lt;/span&gt;" style="ellipse;whiteSpace=wrap;html=1;fillColor=#f5f5f5;strokeColor=#666666;fontColor=#333333;fontStyle=1;snapToPoint=0;fixDash=0;backgroundOutline=1;enumerate=0;comic=0;shadow=1;fontFamily=Comic Sans MS;fontSize=13;" parent="1" vertex="1">
          <mxGeometry x="595" y="-40" width="110" height="70" as="geometry" />
        </mxCell>
        <mxCell id="ujfTkzfmjz4NY19kAMxM-53" value="&lt;u style=&quot;font-size: 13px;&quot;&gt;post_id&lt;/u&gt;" style="ellipse;whiteSpace=wrap;html=1;fillColor=#f5f5f5;strokeColor=#666666;fontColor=#333333;fontStyle=1;snapToPoint=0;fixDash=0;backgroundOutline=1;enumerate=0;comic=0;shadow=1;fontFamily=Comic Sans MS;fontSize=13;" parent="1" vertex="1">
          <mxGeometry x="220" y="750" width="110" height="70" as="geometry" />
        </mxCell>
        <mxCell id="LkBULsKiy7z9g8Z5s-N7-20" value="Total_Likes" style="ellipse;whiteSpace=wrap;html=1;fillColor=#f5f5f5;strokeColor=#666666;fontColor=#333333;fontStyle=1;snapToPoint=0;fixDash=0;backgroundOutline=1;enumerate=0;comic=0;shadow=1;fontFamily=Comic Sans MS;fontSize=13;" parent="1" vertex="1">
          <mxGeometry x="1090" y="761" width="90" height="60" as="geometry" />
        </mxCell>
        <mxCell id="LkBULsKiy7z9g8Z5s-N7-21" value="Created_by" style="ellipse;whiteSpace=wrap;html=1;fillColor=#f5f5f5;strokeColor=#666666;fontColor=#333333;fontStyle=1;snapToPoint=0;fixDash=0;backgroundOutline=1;enumerate=0;comic=0;shadow=1;fontFamily=Comic Sans MS;fontSize=13;" parent="1" vertex="1">
          <mxGeometry x="850" y="761" width="90" height="60" as="geometry" />
        </mxCell>
        <mxCell id="LkBULsKiy7z9g8Z5s-N7-22" value="P_name" style="ellipse;whiteSpace=wrap;html=1;fillColor=#f5f5f5;strokeColor=#666666;fontColor=#333333;fontStyle=1;snapToPoint=0;fixDash=0;backgroundOutline=1;enumerate=0;comic=0;shadow=1;fontFamily=Comic Sans MS;fontSize=13;" parent="1" vertex="1">
          <mxGeometry x="735" y="761" width="90" height="60" as="geometry" />
        </mxCell>
        <mxCell id="LkBULsKiy7z9g8Z5s-N7-28" value="&lt;span style=&quot;font-size: 13px;&quot;&gt;Email&lt;/span&gt;" style="ellipse;whiteSpace=wrap;html=1;fillColor=#f5f5f5;strokeColor=#666666;fontColor=#333333;fontStyle=1;snapToPoint=0;fixDash=0;backgroundOutline=1;enumerate=0;comic=0;shadow=1;fontFamily=Comic Sans MS;fontSize=13;" parent="1" vertex="1">
          <mxGeometry x="860" y="-40" width="110" height="70" as="geometry" />
        </mxCell>
        <mxCell id="LkBULsKiy7z9g8Z5s-N7-30" value="" style="endArrow=none;html=1;rounded=0;entryX=0.5;entryY=1;entryDx=0;entryDy=0;fillColor=#f5f5f5;strokeColor=#666666;fontStyle=1;snapToPoint=0;fixDash=0;backgroundOutline=1;enumerate=0;comic=0;shadow=1;fontFamily=Comic Sans MS;fontSize=13;exitX=1;exitY=0.25;exitDx=0;exitDy=0;" parent="1" source="ujfTkzfmjz4NY19kAMxM-1" target="LkBULsKiy7z9g8Z5s-N7-28" edge="1">
          <mxGeometry width="50" height="50" relative="1" as="geometry">
            <mxPoint x="480" y="205" as="sourcePoint" />
            <mxPoint x="749" y="30" as="targetPoint" />
          </mxGeometry>
        </mxCell>
        <mxCell id="LkBULsKiy7z9g8Z5s-N7-31" value="&lt;u&gt;P_id&lt;/u&gt;" style="ellipse;whiteSpace=wrap;html=1;fillColor=#f5f5f5;strokeColor=#666666;fontColor=#333333;fontStyle=1;snapToPoint=0;fixDash=0;backgroundOutline=1;enumerate=0;comic=0;shadow=1;fontFamily=Comic Sans MS;fontSize=13;" parent="1" vertex="1">
          <mxGeometry x="620" y="762" width="90" height="60" as="geometry" />
        </mxCell>
        <mxCell id="LkBULsKiy7z9g8Z5s-N7-37" style="edgeStyle=orthogonalEdgeStyle;rounded=0;orthogonalLoop=1;jettySize=auto;html=1;exitX=0.5;exitY=0;exitDx=0;exitDy=0;entryX=0.5;entryY=1;entryDx=0;entryDy=0;fontFamily=Helvetica;fontSize=12;fontColor=default;" parent="1" source="LkBULsKiy7z9g8Z5s-N7-36" edge="1">
          <mxGeometry relative="1" as="geometry">
            <mxPoint x="50" y="250" as="targetPoint" />
          </mxGeometry>
        </mxCell>
        <mxCell id="LkBULsKiy7z9g8Z5s-N7-36" value="Created" style="ellipse;whiteSpace=wrap;html=1;fillColor=#f5f5f5;strokeColor=#666666;fontColor=#333333;fontStyle=1;snapToPoint=0;fixDash=0;backgroundOutline=1;enumerate=0;comic=0;shadow=1;fontFamily=Comic Sans MS;fontSize=13;" parent="1" vertex="1">
          <mxGeometry x="70" y="310" width="90" height="50" as="geometry" />
        </mxCell>
        <mxCell id="LkBULsKiy7z9g8Z5s-N7-39" value="Share" style="rhombus;whiteSpace=wrap;html=1;fillColor=#f5f5f5;strokeColor=#666666;fontColor=#333333;fontStyle=1;snapToPoint=0;fixDash=0;backgroundOutline=1;enumerate=0;comic=0;shadow=1;fontFamily=Comic Sans MS;fontSize=13;" parent="1" vertex="1">
          <mxGeometry x="10" y="170" width="80" height="80" as="geometry" />
        </mxCell>
        <mxCell id="LkBULsKiy7z9g8Z5s-N7-40" style="edgeStyle=orthogonalEdgeStyle;rounded=1;orthogonalLoop=1;jettySize=auto;html=1;exitX=1;exitY=0.75;exitDx=0;exitDy=0;endArrow=none;endFill=0;fillColor=#f5f5f5;strokeColor=#666666;fontStyle=1;snapToPoint=0;fixDash=0;backgroundOutline=1;enumerate=0;comic=0;shadow=1;fontFamily=Comic Sans MS;fontSize=13;entryX=1;entryY=0.5;entryDx=0;entryDy=0;" parent="1" source="ujfTkzfmjz4NY19kAMxM-1" target="ujfTkzfmjz4NY19kAMxM-64" edge="1">
          <mxGeometry relative="1" as="geometry">
            <mxPoint x="575" y="225" as="sourcePoint" />
            <mxPoint x="525" y="370" as="targetPoint" />
            <Array as="points">
              <mxPoint x="620" y="225" />
              <mxPoint x="620" y="410" />
            </Array>
          </mxGeometry>
        </mxCell>
        <mxCell id="Jd8wHHOplZ8n1zHB2I2n-3" value="m" style="edgeLabel;html=1;align=center;verticalAlign=middle;resizable=0;points=[];" parent="LkBULsKiy7z9g8Z5s-N7-40" vertex="1" connectable="0">
          <mxGeometry x="-0.9586" y="-2" relative="1" as="geometry">
            <mxPoint as="offset" />
          </mxGeometry>
        </mxCell>
        <mxCell id="LkBULsKiy7z9g8Z5s-N7-42" value="Created_by" style="ellipse;whiteSpace=wrap;html=1;fillColor=#f5f5f5;strokeColor=#666666;fontColor=#333333;fontStyle=1;snapToPoint=0;fixDash=0;backgroundOutline=1;enumerate=0;comic=0;shadow=1;fontFamily=Comic Sans MS;fontSize=13;" parent="1" vertex="1">
          <mxGeometry x="-80" y="750" width="110" height="70" as="geometry" />
        </mxCell>
        <mxCell id="bdlOMHEQabbqpS0Qb6xk-1" value="&lt;u&gt;FID&lt;/u&gt;" style="ellipse;whiteSpace=wrap;html=1;fillColor=#f5f5f5;strokeColor=#666666;fontColor=#333333;fontStyle=1;snapToPoint=0;fixDash=0;backgroundOutline=1;enumerate=0;comic=0;shadow=1;fontFamily=Comic Sans MS;fontSize=13;" vertex="1" parent="1">
          <mxGeometry x="605" y="480" width="50" height="30" as="geometry" />
        </mxCell>
        <mxCell id="bdlOMHEQabbqpS0Qb6xk-2" style="edgeStyle=orthogonalEdgeStyle;rounded=0;orthogonalLoop=1;jettySize=auto;html=1;endArrow=none;endFill=0;fillColor=#f5f5f5;strokeColor=#666666;fontStyle=1;snapToPoint=0;fixDash=0;backgroundOutline=1;enumerate=0;comic=0;shadow=1;fontFamily=Comic Sans MS;fontSize=13;" edge="1" parent="1" target="bdlOMHEQabbqpS0Qb6xk-1">
          <mxGeometry relative="1" as="geometry">
            <Array as="points">
              <mxPoint x="570" y="445" />
              <mxPoint x="570" y="500" />
            </Array>
            <mxPoint x="560" y="445" as="sourcePoint" />
            <mxPoint x="525" y="510" as="targetPoint" />
          </mxGeometry>
        </mxCell>
        <mxCell id="ujfTkzfmjz4NY19kAMxM-64" value="Friend with" style="rhombus;whiteSpace=wrap;html=1;fillColor=#f5f5f5;strokeColor=#666666;fontColor=#333333;fontStyle=1;snapToPoint=0;fixDash=0;backgroundOutline=1;enumerate=0;comic=0;shadow=1;fontFamily=Comic Sans MS;fontSize=13;" parent="1" vertex="1">
          <mxGeometry x="525" y="370" width="80" height="80" as="geometry" />
        </mxCell>
      </root>
    </mxGraphModel>
  </diagram>
</mxfile>
